<?xml version="1.0" standalone="no"?>
<!DOCTYPE svg PUBLIC "-//W3C//DTD SVG 20010904//EN"
 "http://www.w3.org/TR/2001/REC-SVG-20010904/DTD/svg10.dtd">
<svg version="1.0" xmlns="http://www.w3.org/2000/svg"
 width="575.000000pt" height="575.000000pt" viewBox="0 0 575.000000 575.000000"
 preserveAspectRatio="xMidYMid meet">
<metadata>
Created by potrace 1.11, written by Peter Selinger 2001-2013
</metadata>
<g transform="translate(0.000000,575.000000) scale(0.100000,-0.100000)"
fill="#000000" stroke="none">
<path d="M3137 5674 c-4 -4 -59 -12 -88 -13 -14 -1 -35 -10 -46 -20 -12 -11
-23 -18 -26 -15 -7 8 -72 -77 -85 -111 -19 -52 -23 -91 -27 -227 -2 -73 -4
-133 -5 -133 -1 0 -7 -171 -15 -405 -3 -96 -8 -182 -10 -190 -4 -14 -9 -89
-20 -300 -4 -76 -12 -232 -18 -333 -1 -20 1 -37 4 -37 3 0 2 -26 -2 -57 -14
-100 -22 -221 -33 -478 -2 -39 -6 -93 -10 -120 -4 -28 -9 -99 -12 -160 -2 -60
-7 -141 -10 -180 -3 -38 -5 -77 -6 -85 0 -8 -5 -21 -11 -27 -6 -8 -6 -13 0
-13 5 0 7 -14 5 -31 -3 -23 -12 -34 -36 -44 -17 -7 -34 -11 -38 -9 -5 3 -8 1
-8 -4 0 -5 -12 -12 -27 -15 -35 -7 -157 -80 -202 -121 -98 -88 -189 -197 -239
-288 -31 -56 -80 -173 -85 -205 -3 -15 -9 -46 -15 -68 -28 -105 -41 -319 -29
-450 8 -80 30 -195 37 -195 5 0 7 -8 6 -17 -4 -23 55 -249 85 -328 21 -58 45
-105 115 -230 36 -65 239 -281 289 -308 17 -9 45 -24 63 -33 l32 -18 1 -133
c2 -148 1 -143 12 -161 11 -16 77 -16 78 1 0 6 2 21 4 32 2 11 9 49 15 85 22
123 28 136 71 149 22 7 39 16 39 21 0 6 4 10 9 10 23 0 251 155 251 170 0 5 8
11 18 14 25 8 138 121 175 175 17 25 34 48 37 51 21 17 75 110 101 177 36 90
89 206 99 213 4 3 13 23 19 45 7 22 16 49 21 60 13 29 40 125 35 125 -3 0 -1
10 4 23 5 12 12 44 15 71 4 27 9 54 12 58 7 11 7 294 0 328 -3 14 -8 41 -11
60 -2 19 -8 46 -11 60 -4 14 -9 32 -11 40 -2 8 -5 21 -5 28 -1 6 -5 12 -10 12
-5 0 -7 4 -3 9 3 5 -1 15 -8 23 -8 7 -12 18 -10 24 2 7 -4 20 -14 30 -10 9
-17 19 -15 21 6 8 -11 52 -19 47 -5 -3 -6 2 -3 10 4 10 1 16 -10 16 -10 0 -13
6 -10 15 4 8 2 15 -2 15 -5 0 -15 12 -22 28 -14 32 -77 113 -83 107 -3 -2 -13
8 -23 23 -10 15 -36 41 -57 57 -22 17 -45 35 -52 40 -17 14 -66 43 -104 62
-38 19 -40 26 -28 123 7 64 15 154 20 225 2 28 4 50 5 50 4 0 20 153 25 248 1
32 5 61 9 64 11 11 6 24 -6 17 -7 -5 -8 -3 -3 7 11 16 11 22 19 114 3 39 8 84
11 100 7 45 17 143 19 200 1 28 6 56 10 63 4 7 2 12 -6 12 -9 0 -9 3 -2 8 6 4
11 14 11 22 0 8 4 42 8 75 7 67 12 120 19 211 3 34 7 79 10 100 4 22 8 66 11
99 2 33 5 60 6 60 3 0 7 36 13 105 3 36 7 83 10 105 3 22 8 72 10 110 3 39 6
70 6 70 2 0 8 54 14 115 3 25 5 45 6 45 1 0 3 29 5 65 6 93 13 158 24 215 5
28 8 60 6 73 -1 12 2 22 7 22 5 0 4 10 -3 21 -8 15 -8 19 0 15 8 -5 8 0 3 16
-5 13 -8 30 -7 38 1 8 -6 23 -14 34 -9 10 -15 21 -15 25 8 38 -119 149 -148
129 -2 -1 -13 4 -26 11 -20 11 -88 21 -95 15z"/>
</g>
</svg>
